<svg width="640" height="413" viewBox="0 0 640 413" fill="none" xmlns="http://www.w3.org/2000/svg">
<path d="M191.4 394.6C189.5 392.7 186.2 391.5 183.5 391.5C178.5 391.5 175.1 395.4 175.1 400.2C175.1 405 178.1 408.8 183.9 408.8C189.7 408.8 189.1 408.1 190.6 406.9V402.3H183.4V398.8H194.2V408.8C191.3 410.9 187.2 412.2 183.6 412.2C176.3 412.2 170.9 406.8 170.9 400C170.9 393.2 176.4 387.8 183.4 387.8C190.4 387.8 191 389.3 194.1 391.9L191.4 394.4V394.6Z" fill="white"/>
<path d="M201.301 411.7V388.8H205.201V411.7H201.301Z" fill="white"/>
<path d="M213.201 411.7V388.8H225.801C228.901 388.8 231.001 389.6 232.401 391.2C233.601 392.4 234.201 394 234.201 395.8C234.201 398.9 232.201 401.2 229.101 402.4L234.601 411.7H230.101L225.201 402.9H217.101V411.7H213.201ZM217.101 392.2V399.3H226.501C228.601 399.3 230.301 397.7 230.301 395.7C230.301 393.7 229.901 394 229.401 393.4C228.301 392.3 227.001 392.2 225.801 392.2H217.101Z" fill="white"/>
<path d="M251.5 388C258.7 388 264.5 393.4 264.5 400.1C264.5 406.8 258.7 412.3 251.5 412.3C244.3 412.3 238.6 406.9 238.6 400.1C238.6 393.3 244.3 388 251.5 388ZM251.5 408.9C256.5 408.9 260.4 405 260.4 400.2C260.4 395.4 256.5 391.6 251.5 391.6C246.5 391.6 242.8 395.5 242.8 400.2C242.8 404.9 246.6 408.9 251.5 408.9Z" fill="white"/>
<path d="M291.1 388.7V411.6H287.6L274.4 395.7V411.6H270.5V388.7H274L287.2 404.6V388.7H291.1Z" fill="white"/>
<path d="M306.5 388.7H310.1L320.7 411.6H316.4L313.6 405.4H302.7L300 411.6H295.9L306.5 388.7ZM304.1 402.3H312.2L308.3 393.4H308.1L304.1 402.3Z" fill="white"/>
<path d="M331.9 399.4C331.9 396.4 334.5 394 337.6 394C340.7 394 343.3 396.4 343.3 399.4C343.3 402.4 340.7 404.8 337.6 404.8C334.5 404.8 331.9 402.4 331.9 399.4Z" fill="white"/>
<path d="M373.801 394.1C372.501 392.9 369.701 391.4 365.501 391.4C361.301 391.4 360.301 392.3 360.301 394.7C360.301 397.1 363.701 397.3 367.201 397.5C371.301 397.8 377.801 398.2 377.801 404.6C377.801 411 373.201 412.3 367.701 412.3C362.201 412.3 357.701 409.8 355.201 407.5L357.601 404.8C359.501 406.5 362.701 408.9 367.801 408.9C372.901 408.9 373.901 407.7 373.901 405.1C373.901 402.5 371.301 401.6 367.301 401.3C362.201 400.9 356.501 400.5 356.501 395C356.501 389.5 361.501 387.9 365.701 387.9C369.901 387.9 374.401 389.8 376.301 391.2L373.901 393.9L373.801 394.1Z" fill="white"/>
<path d="M383.401 411.7V388.8H396.001C399.201 388.8 401.201 389.7 402.601 391.2C403.801 392.5 404.401 394.1 404.401 395.8C404.401 397.5 403.601 399.5 402.301 400.8C400.901 402.1 399.001 402.9 395.901 402.9H387.201V411.7H383.301H383.401ZM387.401 392.2V399.3H396.101C397.101 399.3 398.501 399.3 399.601 398.2C400.301 397.6 400.701 396.7 400.701 395.8C400.701 394.9 400.301 394.1 399.801 393.5C398.701 392.4 397.301 392.3 396.201 392.3H387.501L387.401 392.2Z" fill="white"/>
<path d="M415.801 388.7H419.401L430.001 411.6H425.701L422.901 405.4H412.001L409.301 411.6H405.201L415.801 388.7ZM413.401 402.3H421.501L417.601 393.4H417.401L413.401 402.3Z" fill="white"/>
<path d="M434.801 411.7V388.8H438.701V411.7H434.801Z" fill="white"/>
<path d="M467.401 388.7V411.6H463.901L450.701 395.7V411.6H446.801V388.7H450.301L463.501 404.6V388.7H467.401Z" fill="white"/>
<path d="M450.901 332.8C450.901 325.9 450.901 324.6 450.901 323.1C450.901 321.5 450.401 320.8 448.901 320.5C448.501 320.5 447.801 320.4 447.101 320.4C446.401 320.4 446.301 320.4 446.301 320C446.301 319.6 446.601 319.6 447.301 319.6C449.701 319.6 452.601 319.7 453.601 319.7C455.201 319.7 458.601 319.6 460.001 319.6C462.901 319.6 465.901 319.9 468.401 321.6C469.701 322.5 471.501 324.8 471.501 327.9C471.501 331 470.101 334.4 465.501 338.1C469.601 343.2 472.701 347.3 475.401 350.1C478.001 352.8 479.801 353.1 480.501 353.2C481.001 353.2 481.401 353.3 481.801 353.3C482.201 353.3 482.301 353.4 482.301 353.7C482.301 354.1 482.001 354.2 481.401 354.2H477.101C474.501 354.2 473.401 354 472.201 353.3C470.201 352.2 468.501 350.1 465.901 346.6C463.301 343.1 462.001 341 461.401 340.3C461.201 340 460.901 340 460.601 340H456.601C456.401 340 456.201 340 456.201 340.3V340.9C456.201 345.1 456.201 348.8 456.401 350.7C456.501 352 456.801 353 458.201 353.2C459.601 353.4 459.901 353.4 460.401 353.4C460.901 353.4 460.901 353.5 460.901 353.8C460.901 354.1 460.601 354.3 460.001 354.3C457.301 354.3 454.001 354.2 453.301 354.2C452.601 354.2 449.601 354.3 447.701 354.3C445.801 354.3 446.801 354.2 446.801 353.8C446.801 353.4 447.001 353.4 447.501 353.4C448.001 353.4 448.701 353.4 449.101 353.2C450.001 353 450.201 352 450.401 350.7C450.601 348.8 450.601 345.2 450.601 341V333L450.901 332.8ZM456.301 336.4C456.301 336.9 456.301 337.1 456.701 337.2C457.701 337.5 459.001 337.7 460.201 337.7C462.001 337.7 462.601 337.5 463.401 336.9C464.801 335.9 466.101 333.8 466.101 330C466.101 323.5 461.801 321.6 459.101 321.6C456.401 321.6 457.101 321.6 456.701 321.8C456.401 321.8 456.301 322.1 456.301 322.4V336.3V336.4Z" fill="white"/>
<path d="M485.401 332.8C485.401 325.9 485.401 324.6 485.401 323.1C485.401 321.5 484.901 320.8 483.401 320.5C483.001 320.5 482.301 320.4 481.601 320.4C480.901 320.4 480.801 320.4 480.801 320C480.801 319.6 481.101 319.6 481.801 319.6C483.001 319.6 484.401 319.6 485.501 319.6C486.701 319.6 487.701 319.6 488.401 319.6C489.901 319.6 499.001 319.6 499.801 319.6C500.701 319.6 501.401 319.4 501.801 319.3C502.001 319.3 502.301 319.1 502.501 319.1C502.701 319.1 502.801 319.3 502.801 319.5C502.801 319.7 502.601 320.4 502.401 322.5C502.401 323 502.301 325 502.201 325.5C502.201 325.7 502.101 326 501.701 326C501.301 326 501.301 325.8 501.301 325.4C501.301 325 501.301 324.3 501.001 323.8C500.701 323 500.201 322.4 497.901 322.2C497.101 322.2 492.301 322 491.401 322C490.501 322 491.101 322.1 491.101 322.5V334.1C491.101 334.4 491.101 334.6 491.401 334.6C492.401 334.6 497.701 334.6 498.701 334.6C499.801 334.6 500.501 334.4 500.901 333.9C501.201 333.5 501.401 333.3 501.601 333.3C501.801 333.3 501.901 333.3 501.901 333.7C501.901 334.1 501.701 334.7 501.501 337C501.501 337.9 501.301 339.7 501.301 340.1C501.301 340.5 501.301 341 500.901 341C500.501 341 500.501 340.8 500.501 340.6C500.501 340.1 500.501 339.5 500.301 339C500.101 338.1 499.401 337.4 497.701 337.2C496.801 337.2 492.301 337.1 491.201 337.1C490.101 337.1 490.901 337.3 490.901 337.6V341.2C490.901 342.8 490.901 347 490.901 348.3C490.901 351.5 491.701 352.1 496.401 352.1C501.101 352.1 499.501 352.1 500.701 351.6C501.901 351.1 502.401 350.1 502.801 348.2C502.801 347.7 503.001 347.5 503.301 347.5C503.601 347.5 503.701 347.9 503.701 348.3C503.701 349.4 503.301 352.5 503.101 353.4C502.801 354.6 502.401 354.6 500.601 354.6C497.201 354.6 494.701 354.6 492.701 354.5C490.701 354.5 489.301 354.4 487.901 354.4C486.501 354.4 486.401 354.4 485.301 354.4C484.201 354.4 483.101 354.4 482.101 354.4C481.101 354.4 481.201 354.3 481.201 353.9C481.201 353.5 481.401 353.5 481.901 353.5C482.401 353.5 483.101 353.5 483.501 353.3C484.401 353.1 484.601 352.1 484.801 350.8C485.001 348.9 485.001 345.3 485.001 341.1V333.1L485.401 332.8Z" fill="white"/>
<path d="M511.8 353.5C511.1 353.2 510.9 353 510.9 351.9C510.9 349.4 511.1 346.6 511.1 345.9C511.1 345.2 511.3 344.7 511.6 344.7C511.9 344.7 512.1 345.1 512.1 345.5C512.1 346.1 512.3 347.1 512.5 347.8C513.5 351.2 516.2 352.4 519 352.4C523.1 352.4 525.1 349.6 525.1 347.2C525.1 344.8 524.4 342.9 520.6 339.9L518.5 338.3C513.5 334.4 511.7 331.2 511.7 327.5C511.7 323.8 515.9 318.9 522.3 318.9C528.7 318.9 527.2 319.4 528.4 319.7C528.8 319.7 529 319.9 529 320.2C529 320.8 528.8 322.1 528.8 325.7C528.8 329.3 528.7 327.1 528.3 327.1C527.9 327.1 527.8 326.8 527.8 326.3C527.8 325.8 527.6 324.5 526.6 323.3C525.9 322.4 524.6 321.1 521.6 321.1C518.6 321.1 516.2 323.1 516.2 325.8C516.2 328.5 517.3 329.5 521 332.4L522.3 333.4C527.8 337.6 529.8 340.7 529.8 345.1C529.8 349.5 528.8 350.9 525.5 353.1C523.2 354.6 520.7 355 518.2 355C515.7 355 513.5 354.7 511.5 353.8L511.8 353.5Z" fill="white"/>
<path d="M535.9 336.8C535.9 329 541.1 318.9 554.8 318.9C568.5 318.9 573.3 325.5 573.3 336C573.3 346.5 566 354.7 554.4 354.7C542.8 354.7 536 344.9 536 336.8H535.9ZM566.8 337.7C566.8 327.5 560.9 321.1 553.4 321.1C545.9 321.1 542.2 324 542.2 335.4C542.2 346.8 547.5 352.4 556.2 352.4C564.9 352.4 566.8 350.8 566.8 337.6V337.7Z" fill="white"/>
<path d="M582.801 332.8C582.801 325.9 582.801 324.6 582.801 323.1C582.801 321.5 582.301 320.8 580.801 320.5C580.401 320.5 579.701 320.4 579.001 320.4C578.301 320.4 578.201 320.4 578.201 320C578.201 319.6 578.501 319.6 579.201 319.6C581.601 319.6 584.501 319.7 585.501 319.7C587.101 319.7 590.501 319.6 591.901 319.6C594.801 319.6 597.801 319.9 600.301 321.6C601.601 322.5 603.401 324.8 603.401 327.9C603.401 331 602.001 334.4 597.401 338.1C601.501 343.2 604.601 347.3 607.301 350.1C609.901 352.8 611.701 353.1 612.401 353.2C612.901 353.2 613.301 353.3 613.701 353.3C614.101 353.3 614.201 353.4 614.201 353.7C614.201 354.1 613.901 354.2 613.301 354.2H609.001C606.401 354.2 605.301 354 604.101 353.3C602.101 352.2 600.401 350.1 597.801 346.6C596.001 344.1 593.901 341 593.301 340.3C593.101 340 592.801 340 592.501 340H588.501C588.301 340 588.101 340 588.101 340.3V340.9C588.101 345.1 588.101 348.8 588.301 350.7C588.401 352 588.701 353 590.101 353.2C591.501 353.4 591.801 353.4 592.301 353.4C592.801 353.4 592.801 353.5 592.801 353.8C592.801 354.1 592.501 354.3 591.901 354.3C589.201 354.3 585.901 354.2 585.201 354.2C584.501 354.2 581.501 354.3 579.601 354.3C577.701 354.3 578.701 354.2 578.701 353.8C578.701 353.4 578.901 353.4 579.401 353.4C579.901 353.4 580.601 353.4 581.001 353.2C581.901 353 582.101 352 582.301 350.7C582.501 348.8 582.501 345.2 582.501 341V333L582.801 332.8ZM588.201 336.4C588.201 336.9 588.201 337.1 588.601 337.2C589.601 337.5 590.901 337.7 592.101 337.7C593.901 337.7 594.501 337.5 595.301 336.9C596.701 335.9 598.001 333.8 598.001 330C598.001 323.5 593.701 321.6 591.001 321.6C588.301 321.6 589.001 321.6 588.601 321.8C588.301 321.8 588.201 322.1 588.201 322.4V336.3V336.4Z" fill="white"/>
<path d="M621.601 322.1L614.801 322.3C612.101 322.3 611.101 322.6 610.401 323.6C609.901 324.3 609.701 324.8 609.601 325.2C609.501 325.6 609.401 325.7 609.101 325.7C608.801 325.7 608.701 325.5 608.701 325C608.701 324.3 609.601 320.1 609.701 319.7C609.801 319.1 610.001 318.8 610.201 318.8C610.401 318.8 611.001 319.3 612.201 319.3C613.501 319.4 615.301 319.5 616.801 319.5H634.901C636.401 319.5 637.401 319.4 638.101 319.3C638.801 319.2 639.201 319.1 639.301 319.1C639.601 319.1 639.701 319.4 639.701 320.1C639.701 320.8 639.601 324.2 639.601 325.4C639.601 325.9 639.501 326.1 639.201 326.1C638.901 326.1 638.701 325.9 638.701 325.2V324.7C638.601 323.5 637.301 322.2 633.301 322.1H627.501C627.501 322 627.501 340.7 627.501 340.7C627.501 344.9 627.501 348.5 627.701 350.5C627.801 351.8 628.101 352.8 629.501 353C630.101 353 631.101 353.2 631.801 353.2C632.501 353.2 632.501 353.3 632.501 353.6C632.501 353.9 632.101 354.1 631.601 354.1C628.601 354.1 625.701 354 624.401 354C623.101 354 620.501 354.1 618.601 354.1C616.701 354.1 617.701 354 617.701 353.6C617.701 353.2 617.901 353.2 618.401 353.2C618.901 353.2 619.601 353.2 620.001 353C620.901 352.8 621.201 351.8 621.301 350.5C621.501 348.6 621.501 345 621.501 340.8V322.1H621.601Z" fill="white"/>
<path d="M77.8 353.6C76 354.3 73 354.8 70.6 354.8C57.2 354.8 52 344.9 52 336.7C52 328.5 57.3 319 70.7 319C84.1 319 89.2 325.6 89.2 336.3C89.2 347 84.1 349.4 81.2 351.3L90.4 356C100 360.9 106.1 361.4 109.2 361.4C112.3 361.4 115 361 118.1 359.8C118.4 359.8 118.6 359.6 118.8 359.6C119 359.6 119.2 359.8 119.2 360C119.2 360.2 119 360.4 118.7 360.5C116 361.8 110.8 363.9 104.2 363.9C97.6 363.9 92.4 362.1 84.9 357.7L77.7 353.5L77.8 353.6ZM82.9 337.5C82.9 326.4 76 321.1 69.7 321.1C63.4 321.1 58.4 324.9 58.4 335.5C58.4 346.1 65 352.4 72.3 352.4C79.6 352.4 82.9 350.8 82.9 337.4V337.5Z" fill="white"/>
<path d="M94.0004 332.8C94.0004 325.9 94.0004 324.6 94.0004 323.1C94.0004 321.5 93.5004 320.8 92.0004 320.5C91.6004 320.5 90.9004 320.4 90.2004 320.4C89.5004 320.4 89.4004 320.4 89.4004 320C89.4004 319.6 89.7004 319.6 90.4004 319.6C92.8004 319.6 95.7004 319.7 97.1004 319.7C98.5004 319.7 101.1 319.6 102.7 319.6C104.3 319.6 103.7 319.6 103.7 320C103.7 320.4 103.4 320.4 103 320.4C102.6 320.4 102.2 320.4 101.7 320.5C100.5 320.7 100.1 321.5 100 323.1C100 324.6 100 325.8 100 332.8V339.2C100 345.8 101.3 348.6 103.6 350.4C105.7 352.1 107.8 352.3 109.3 352.3C110.8 352.3 113.8 351.7 115.6 349.8C118.1 347.3 118.2 343.2 118.2 338.5V332.8C118.2 325.9 118.2 324.6 118.2 323.1C118.2 321.5 117.7 320.8 116.2 320.5C115.8 320.5 115.1 320.4 114.6 320.4C114.1 320.4 113.8 320.4 113.8 320C113.8 319.6 114.1 319.6 114.8 319.6C117.1 319.6 120 319.7 120.1 319.7C120.6 319.7 123.5 319.6 125.3 319.6C127.1 319.6 126.3 319.6 126.3 320C126.3 320.4 126 320.4 125.5 320.4C125 320.4 124.7 320.4 124.2 320.5C123 320.7 122.6 321.5 122.5 323.1C122.5 324.6 122.5 325.8 122.5 332.8V337.7C122.5 342.8 122 348.2 118.2 351.5C115 354.3 111.7 354.8 108.7 354.8C105.7 354.8 101.9 354.7 98.6004 351.6C96.3004 349.5 94.5004 346.1 94.5004 339.5V332.8H94.0004Z" fill="white"/>
<path d="M131.299 332.8C131.299 325.9 131.299 324.6 131.299 323.1C131.299 321.5 130.799 320.8 129.699 320.5C129.199 320.4 128.599 320.3 128.099 320.3C127.599 320.3 127.399 320.3 127.399 319.8C127.399 319.3 127.799 319.4 128.499 319.4C130.199 319.4 133.099 319.5 134.399 319.5C135.699 319.5 138.199 319.4 139.999 319.4C141.799 319.4 140.999 319.4 140.999 319.8C140.999 320.2 140.699 320.3 140.299 320.3C139.899 320.3 139.499 320.3 138.899 320.4C137.699 320.6 137.299 321.4 137.199 323C137.199 324.5 137.199 325.7 137.199 332.7V340.7C137.199 345.1 137.199 348.7 137.399 350.7C137.499 351.9 137.899 352.8 139.199 352.9C139.799 352.9 140.799 353.1 141.499 353.1C142.199 353.1 142.199 353.2 142.199 353.5C142.199 353.8 141.799 354 141.299 354C138.299 354 135.399 353.9 134.199 353.9C132.999 353.9 130.299 354 128.399 354C126.499 354 127.499 353.9 127.499 353.5C127.499 353.1 127.699 353.1 128.199 353.1C128.699 353.1 129.399 353.1 129.799 352.9C130.699 352.7 130.999 351.9 131.099 350.6C131.299 348.7 131.299 345.1 131.299 340.6V332.6V332.8Z" fill="white"/>
<path d="M150.799 347.9C150.799 351.5 151.499 352.7 152.399 353C153.199 353.3 153.999 353.3 154.799 353.3C155.599 353.3 155.599 353.3 155.599 353.7C155.599 354.1 155.199 354.2 154.499 354.2C151.499 354.2 149.699 354.1 148.799 354.1C147.899 354.1 146.199 354.2 143.899 354.2C141.599 354.2 142.899 354.2 142.899 353.7C142.899 353.2 143.199 353.3 143.599 353.3C143.999 353.3 144.999 353.3 145.699 353.1C146.899 352.7 147.099 351.4 147.099 347.4L147.499 320.3C147.499 319.4 147.599 318.7 148.099 318.7C148.599 318.7 148.999 319.3 149.799 320.1C150.299 320.7 157.299 328.1 163.999 334.8C167.099 337.9 173.299 344.5 174.099 345.2H174.299L173.799 324.7C173.799 321.9 173.299 321 172.199 320.6C171.499 320.3 170.399 320.3 169.799 320.3C169.199 320.3 169.099 320.2 169.099 319.9C169.099 319.6 169.599 319.5 170.299 319.5C172.699 319.5 174.899 319.6 175.799 319.6C176.699 319.6 177.999 319.5 180.299 319.5C182.599 319.5 181.399 319.5 181.399 319.9C181.399 320.3 181.099 320.3 180.599 320.3C180.099 320.3 179.799 320.3 179.199 320.4C177.899 320.8 177.599 321.7 177.499 324.3L176.999 353.1C176.999 354.1 176.799 354.5 176.399 354.5C175.999 354.5 175.299 354 174.799 353.5C171.899 350.8 166.099 344.8 161.299 340.1C156.299 335.2 151.199 329.5 150.399 328.6H150.299L150.799 347.8V347.9Z" fill="white"/>
<path d="M194.9 322.1L188.1 322.3C185.4 322.3 184.4 322.6 183.7 323.6C183.2 324.3 183 324.8 182.9 325.2C182.9 325.6 182.7 325.7 182.4 325.7C182.1 325.7 182 325.5 182 325C182 324.3 182.9 320.1 183 319.7C183.1 319.1 183.3 318.8 183.5 318.8C183.7 318.8 184.3 319.3 185.5 319.3C186.8 319.4 188.6 319.5 190.1 319.5H208.2C209.7 319.5 210.7 319.4 211.4 319.3C212.1 319.2 212.5 319.1 212.6 319.1C212.9 319.1 213 319.4 213 320.1C213 320.8 212.9 324.2 212.9 325.4C212.9 325.9 212.8 326.1 212.5 326.1C212.2 326.1 212 325.9 212 325.2V324.7C211.9 323.5 210.6 322.2 206.6 322.1H200.8C200.8 322 200.8 340.7 200.8 340.7C200.8 344.9 200.8 348.5 201 350.5C201.1 351.8 201.4 352.8 202.8 353C203.4 353 204.4 353.2 205.1 353.2C205.8 353.2 205.8 353.3 205.8 353.6C205.8 353.9 205.4 354.1 204.9 354.1C201.9 354.1 199 354 197.7 354C196.4 354 193.8 354.1 191.9 354.1C190 354.1 191 354 191 353.6C191 353.2 191.2 353.2 191.7 353.2C192.2 353.2 192.9 353.2 193.3 353C194.2 352.8 194.5 351.8 194.6 350.5C194.8 348.6 194.8 345 194.8 340.8V322.1H194.9Z" fill="white"/>
<path d="M219.499 342.2C219.299 342.2 219.199 342.2 219.099 342.6L216.599 349.1C216.099 350.2 215.899 351.3 215.899 351.9C215.899 352.7 216.299 353.3 217.699 353.3H218.399C218.899 353.3 219.099 353.3 219.099 353.7C219.099 354.1 218.799 354.2 218.299 354.2C216.799 354.2 214.899 354.1 213.499 354.1C212.099 354.1 210.499 354.2 208.099 354.2C205.699 354.2 207.199 354.2 207.199 353.7C207.199 353.2 207.399 353.3 207.699 353.3C207.999 353.3 208.799 353.3 209.099 353.3C211.199 353 212.099 351.5 212.999 349.2L224.499 320.5C224.999 319.2 225.299 318.7 225.799 318.7C226.299 318.7 226.499 319.1 226.899 320.2C227.999 322.7 235.299 341.4 238.199 348.3C239.899 352.4 241.299 353.1 242.199 353.3C242.899 353.4 243.599 353.5 244.099 353.5C244.599 353.5 244.699 353.5 244.699 353.9C244.699 354.3 244.299 354.4 242.599 354.4C240.899 354.4 237.599 354.4 233.999 354.4C233.199 354.4 232.599 354.4 232.599 354C232.599 353.6 232.799 353.6 233.199 353.6C233.499 353.6 233.799 353.1 233.599 352.6L229.899 342.9C229.899 342.7 229.699 342.6 229.399 342.6H219.199L219.499 342.2ZM228.799 339.9C228.999 339.9 229.099 339.8 228.999 339.6L224.899 328.3C224.899 328.1 224.899 327.9 224.699 327.9C224.499 327.9 224.499 328.1 224.399 328.3L220.199 339.5C220.199 339.7 220.199 339.8 220.399 339.8H228.799V339.9Z" fill="white"/>
<path d="M306.399 340.9C306.399 346.8 306.399 349.9 307.399 350.7C308.199 351.4 309.399 351.7 312.899 351.7C316.399 351.7 317.099 351.7 318.199 350.4C318.699 349.8 319.299 348.5 319.399 347.7C319.399 347.3 319.499 347 319.899 347C320.299 347 320.299 347.2 320.299 347.8C320.299 348.4 319.999 351.7 319.599 353.1C319.299 354.1 319.099 354.3 316.699 354.3C314.299 354.3 310.999 354.3 308.999 354.2C306.899 354.2 305.299 354.1 303.399 354.1C301.499 354.1 301.899 354.1 300.799 354.1C299.699 354.1 298.599 354.1 297.599 354.1C296.599 354.1 296.699 354 296.699 353.6C296.699 353.2 296.899 353.2 297.399 353.2C297.899 353.2 298.599 353.2 298.999 353C299.899 352.8 300.099 351.8 300.299 350.5C300.499 348.6 300.499 345 300.499 340.8V332.8C300.499 325.9 300.499 324.6 300.499 323.1C300.499 321.5 299.999 320.8 298.499 320.5C298.099 320.5 297.599 320.4 296.999 320.4C296.399 320.4 296.199 320.4 296.199 320C296.199 319.6 296.499 319.6 297.199 319.6C299.299 319.6 302.199 319.7 303.499 319.7C304.799 319.7 307.899 319.6 309.699 319.6C311.499 319.6 310.699 319.6 310.699 320C310.699 320.4 310.399 320.4 309.899 320.4C309.399 320.4 308.699 320.4 308.099 320.5C306.899 320.7 306.499 321.5 306.399 323.1C306.399 324.6 306.399 325.8 306.399 332.8V340.8V340.9Z" fill="white"/>
<path d="M333.9 342.2C333.7 342.2 333.6 342.2 333.5 342.6L331 349.1C330.5 350.2 330.3 351.3 330.3 351.9C330.3 352.7 330.7 353.3 332.1 353.3H332.8C333.3 353.3 333.5 353.3 333.5 353.7C333.5 354.1 333.2 354.2 332.7 354.2C331.2 354.2 329.3 354.1 327.9 354.1C326.5 354.1 324.9 354.2 322.5 354.2C320.1 354.2 321.6 354.2 321.6 353.7C321.6 353.2 321.8 353.3 322.1 353.3C322.4 353.3 323.2 353.3 323.5 353.3C325.6 353 326.5 351.5 327.4 349.2L338.9 320.5C339.4 319.2 339.7 318.7 340.2 318.7C340.7 318.7 340.9 319.1 341.3 320.2C342.4 322.7 349.7 341.4 352.6 348.3C354.3 352.4 355.7 353.1 356.6 353.3C357.3 353.4 358 353.5 358.5 353.5C359 353.5 359.1 353.5 359.1 353.9C359.1 354.3 358.7 354.4 357 354.4C355.3 354.4 352 354.4 348.4 354.4C347.6 354.4 347 354.4 347 354C347 353.6 347.2 353.6 347.6 353.6C347.9 353.6 348.2 353.1 348 352.6L344.3 342.9C344.3 342.7 344.1 342.6 343.8 342.6H333.6L333.9 342.2ZM343.2 339.9C343.4 339.9 343.5 339.8 343.4 339.6L339.3 328.3C339.3 328.1 339.3 327.9 339.1 327.9C338.9 327.9 338.9 328.1 338.8 328.3L334.6 339.5C334.6 339.7 334.6 339.8 334.8 339.8H343.2V339.9Z" fill="white"/>
<path d="M388.098 351.1C388.098 352.3 388.098 352.4 387.498 352.7C384.498 354.3 379.998 354.8 376.498 354.8C365.298 354.8 355.398 349.5 355.398 336.9C355.398 324.3 359.198 324.5 363.298 322C367.698 319.3 371.798 319 375.598 319C379.398 319 382.798 319.5 383.698 319.7C384.698 319.9 386.298 320.2 387.298 320.2C387.898 320.2 387.898 320.4 387.898 320.7C387.898 321.2 387.598 322.5 387.598 328.2C387.598 333.9 387.498 329.2 387.098 329.2C386.698 329.2 386.698 329 386.598 328.6C386.498 327.5 386.198 326.1 384.998 324.8C383.598 323.3 379.998 321.2 374.798 321.2C369.598 321.2 368.998 321.4 365.798 324C363.198 326.1 361.598 329.6 361.598 335.2C361.598 345 367.898 352.4 377.498 352.4C387.098 352.4 380.298 352.4 381.398 351.9C382.098 351.6 382.298 351 382.298 350.2V345.9C382.298 343.6 382.298 341.9 382.298 340.5C382.298 338.9 381.798 338.2 380.298 337.9C379.898 337.9 379.198 337.8 378.498 337.8C377.798 337.8 377.798 337.8 377.798 337.4C377.798 337 378.098 336.9 378.798 336.9C381.198 336.9 384.098 337 385.398 337C386.698 337 389.198 336.9 390.698 336.9C392.198 336.9 391.598 336.9 391.598 337.4C391.598 337.9 391.298 337.8 390.998 337.8C390.698 337.8 390.298 337.8 389.798 337.9C388.598 338.1 388.098 338.9 388.098 340.5C388.098 341.9 388.098 343.7 388.098 346V351V351.1Z" fill="white"/>
<path d="M394.1 336.8C394.1 329 399.3 318.9 413 318.9C426.7 318.9 431.5 325.5 431.5 336C431.5 346.5 424.2 354.7 412.6 354.7C401 354.7 394.2 344.9 394.2 336.8H394.1ZM425 337.7C425 327.5 419.1 321.1 411.6 321.1C404.1 321.1 400.4 324 400.4 335.4C400.4 346.8 405.7 352.4 414.4 352.4C423.1 352.4 425 350.8 425 337.6V337.7Z" fill="white"/>
<path d="M250.5 334.6C250.5 330.7 250.5 329.9 250.5 329.1C250.5 328.2 250.2 327.8 249.4 327.6C249.2 327.6 248.8 327.6 248.4 327.6C248 327.6 248 327.6 248 327.4C248 327.2 248.2 327.2 248.6 327.2C250 327.2 251.6 327.2 252.3 327.2C253 327.2 254.7 327.2 256.3 327.2C259.5 327.2 263.9 327.2 266.7 330.2C268 331.6 269.2 333.7 269.2 336.8C269.2 339.9 267.8 342.6 266.4 344C265.2 345.2 262.5 347.1 257.7 347.1C252.9 347.1 255.7 347.1 254.7 346.9C253.7 346.9 252.8 346.7 252.2 346.7C251.6 346.7 251.3 346.7 250.7 346.7C250.1 346.7 249.4 346.7 248.9 346.7C248.4 346.7 248.4 346.7 248.4 346.4C248.4 346.1 248.5 346.2 248.8 346.2C249.1 346.2 249.5 346.2 249.7 346.1C250.2 346 250.3 345.4 250.5 344.7C250.6 343.6 250.6 341.6 250.6 339.2V334.6H250.5ZM253.8 337.4C253.8 340.2 253.8 342.2 253.8 342.6C253.8 343.2 253.8 344.3 254.1 344.6C254.4 345.1 255.5 345.6 257.5 345.6C259.5 345.6 261.9 345.1 263.5 343.7C265.2 342.3 265.7 339.9 265.7 337.2C265.7 334.5 264.3 331.8 263.2 330.7C260.8 328.4 257.8 328.1 255.8 328.1C253.8 328.1 254.3 328.1 254.1 328.3C253.9 328.4 253.8 328.5 253.8 328.8C253.8 329.7 253.8 331.9 253.8 334V337.3V337.4Z" fill="white"/>
<path d="M270.5 336.9C270.5 332.5 273.4 326.7 281.2 326.7C289 326.7 291.7 330.5 291.7 336.4C291.7 342.3 287.5 347.1 280.9 347.1C274.3 347.1 270.4 341.5 270.4 336.9H270.5ZM288.1 337.4C288.1 331.6 284.7 328 280.5 328C276.3 328 274.1 329.7 274.1 336.1C274.1 342.5 277.1 345.8 282.1 345.8C287.1 345.8 288.1 344.9 288.1 337.4Z" fill="white"/>
<path d="M13.1009 342.1C12.9009 342.1 12.8009 342.1 12.7009 342.5L10.2009 349C9.70085 350.1 9.50085 351.2 9.50085 351.8C9.50085 352.6 9.90086 353.2 11.3009 353.2H12.0009C12.5009 353.2 12.7009 353.2 12.7009 353.6C12.7009 354 12.4009 354.1 11.9009 354.1C10.4009 354.1 8.50085 354 7.10085 354C5.70085 354 4.10085 354.1 1.70085 354.1C-0.699149 354.1 0.800857 354.1 0.800857 353.6C0.800857 353.1 1.00086 353.2 1.30086 353.2C1.60086 353.2 2.40085 353.2 2.70085 353.2C4.80085 352.9 5.70085 351.4 6.60085 349.1L18.1009 320.4C18.6009 319.1 18.9009 318.6 19.4009 318.6C19.9009 318.6 20.1009 319 20.5009 320.1C21.6009 322.6 28.9009 341.3 31.8009 348.2C33.5009 352.3 34.9009 353 35.8009 353.2C36.5009 353.3 37.2009 353.4 37.7009 353.4C38.2009 353.4 38.3009 353.4 38.3009 353.8C38.3009 354.2 37.9009 354.3 36.2009 354.3C34.5009 354.3 31.2009 354.3 27.6009 354.3C26.8009 354.3 26.2009 354.3 26.2009 353.9C26.2009 353.5 26.4009 353.5 26.8009 353.5C27.1009 353.5 27.4009 353 27.2009 352.4L23.5009 342.7C23.5009 342.5 23.3009 342.4 23.0009 342.4H12.8009L13.1009 342.1ZM22.4009 339.8C22.6009 339.8 22.7009 339.7 22.6009 339.5L18.5009 328.2C18.5009 328 18.5009 327.8 18.3009 327.8C18.1009 327.8 18.1009 328 18.0009 328.2L13.8009 339.4C13.8009 339.6 13.8009 339.7 14.0009 339.7H22.4009V339.8Z" fill="white"/>
<path d="M272.799 265H272.599L253.799 233.6H241.799V290.9H253.999V257.6H254.399L270.499 284.4H273.999L290.099 257.6H290.499V290.9H303.099V233.6H291.399L272.699 265H272.799ZM192.599 233.5L165.999 290.8H179.299L184.499 278.7H210.999L216.299 290.8H230.099L203.499 233.5H192.699H192.599ZM188.699 268.8L197.399 248.5H197.899L206.599 268.8H188.699ZM131.299 281.8C119.399 281.8 111.799 273 111.799 262.2C111.799 251.4 119.299 242.6 130.899 242.6C142.499 242.6 144.399 245.4 149.699 250L157.599 241.7C150.699 235.8 140.399 231.7 129.899 231.7C111.399 231.7 98.6992 245.6 98.6992 262.1C98.6992 278.6 111.299 292.6 130.299 292.6C149.299 292.6 152.899 287 159.499 280.8L151.499 272.6C146.499 277.6 139.199 281.7 131.399 281.7L131.299 281.8ZM446.199 233.5L419.599 290.8H432.899L438.099 278.7H464.599L469.899 290.8H483.699L457.099 233.5H446.299H446.199ZM442.299 268.8L450.999 248.5H451.499L460.199 268.8H442.299ZM507.999 280.1V233.6H495.399V290.9H541.699V280.1H507.999ZM408.299 251.6C408.299 247 406.499 242.9 403.599 239.7C399.899 235.8 394.599 233.5 386.399 233.5H354.599V290.8H367.199V269.7H384.199L395.799 290.8H410.199L396.799 267.7C403.799 264.6 408.399 258.9 408.399 251.5L408.299 251.6ZM387.599 259.2H367.099V244.2H386.799C389.099 244.2 391.599 244.5 393.699 246.7C394.999 248 395.699 249.8 395.699 251.7C395.699 256.1 392.099 259.3 387.699 259.3L387.599 259.2ZM322.699 290.9H335.299V233.6H322.699V290.9Z" fill="white"/>
<path d="M386.8 179.5C383.7 178.7 381 177.6 379 176.5L343.1 157.6C340.5 156.5 336.9 154.5 332.3 152.9C355.7 149.5 375.5 135 386.8 114.7C392.9 103.6 396.5 90.7998 396.5 77.2998C396.5 63.7998 392.9 51.0998 386.8 39.9998C373.7 16.5998 349 0.799805 320.6 0.799805H320.4C278.7 0.999805 244.6 35.2998 244.6 77.2998C244.6 119.3 269.2 143.5 302.5 151.9C295.2 153.8 285 158.2 274 168.4C268.2 170.4 263.1 173.5 257.8 177L259.7 178.6C271.3 170.8 279.8 167.4 299.5 180.5L316.5 191.4C317.7 192.2 319.1 193.1 320.6 193.9C330 199.4 343.1 203.1 369.4 192L368.3 190.9C357.9 195.6 347.1 195.6 335.8 188.2L320.5 178.2L315.7 175.1C312.3 172.7 299.5 165.7 285.9 166.2C284 166.2 282.2 166.5 280.1 166.5C297.7 151.7 313.6 157.8 320.5 161.2C321.4 161.5 322.1 162 322.7 162.3L354.7 179.6C360.2 182.4 371.1 188.7 386.8 186.8C388.8 186.5 391 186 393.3 185.4C401 183.5 409.1 180.1 414.5 177.8L412.9 176.6C403.4 181.9 393.9 181.4 386.7 179.6L386.8 179.5ZM320.6 148.8H320.4C288.1 148.6 261.4 116.3 261.4 76.9998C261.4 37.6998 288.1 5.1998 320.4 5.0998H320.6C353.1 5.0998 379.4 37.1998 379.4 76.9998C379.4 116.8 353 148.8 320.6 148.8ZM450.1 162.7C439.6 168.5 427.6 165 422.6 162.4L406.4 154.6C400.6 152.1 395 150.2 386.8 150.1H385.2C377.9 150.1 366.2 152 358.8 155.4L360.8 156.9C366.1 155 372.8 152.7 385.1 158.2L386.7 158.8L407.9 168.5C412.9 171.3 430.2 176.3 452.4 163.5L450.1 162.7Z" fill="white"/>
</svg>
